<?xml version="1.0" standalone="no"?>
<!DOCTYPE svg PUBLIC "-//W3C//DTD SVG 20010904//EN"
 "http://www.w3.org/TR/2001/REC-SVG-20010904/DTD/svg10.dtd">

<svg version="1.0" xmlns="http://www.w3.org/2000/svg"
 width="512.000000pt" height="200.000000pt" viewBox="0 0 270.000000 100.000000"
 preserveAspectRatio="xMidYMid meet">

<g transform="translate(0.000000,100.000000) scale(0.100000,-0.100000)"
fill="currentColor" stroke="none"> 
<path d="M1473 773 c-28 -5 -70 -47 -75 -76 -24 -124 159 -177 208 -60 34 79
-40 155 -133 136z m77 -53 c41 -41 15 -110 -42 -110 -33 0 -68 31 -68 62 0 29
38 68 67 68 13 0 32 -9 43 -20z"/>
<path d="M1692 773 c-12 -2 -30 -16 -39 -29 -25 -38 -5 -70 54 -87 67 -20 64
-42 -6 -42 -60 0 -79 -18 -36 -35 60 -23 126 -4 138 39 8 31 -18 57 -68 70
-35 9 -46 16 -43 29 3 13 14 17 48 17 33 0 46 4 48 16 2 11 -7 18 -29 23 -17
3 -34 5 -38 5 -3 -1 -16 -4 -29 -6z"/>
<path d="M1190 670 l0 -100 55 0 c105 0 154 42 108 92 -13 14 -14 21 -5 30 17
17 15 42 -6 61 -13 12 -37 17 -85 17 l-67 0 0 -100z m115 45 c0 -16 -8 -21
-37 -23 -35 -3 -38 -1 -38 23 0 24 3 26 38 23 29 -2 37 -7 37 -23z m12 -66
c22 -22 2 -39 -43 -39 -40 0 -44 2 -44 25 0 22 4 25 38 25 21 0 43 -5 49 -11z"/>
<path d="M2080 699 c0 -65 2 -73 29 -100 38 -38 91 -40 126 -4 22 21 25 33 25
100 0 68 -2 75 -20 75 -18 0 -20 -7 -20 -68 0 -72 -10 -92 -45 -92 -35 0 -45
20 -45 92 0 66 -1 68 -25 68 -24 0 -25 -2 -25 -71z"/>
<path d="M2312 673 l3 -98 78 -3 c72 -3 77 -1 77 18 0 18 -6 20 -55 20 -52 0
-55 1 -55 25 0 23 4 25 45 25 33 0 45 4 45 15 0 11 -12 15 -45 15 -41 0 -45 2
-45 24 0 23 4 25 53 28 80 5 62 23 -26 26 l-78 3 3 -98z"/>
<path d="M1190 330 c0 -93 1 -100 20 -100 15 0 20 7 20 25 0 20 5 25 25 25 45
0 94 27 101 55 15 60 -27 95 -117 95 l-49 0 0 -100z m115 25 c0 -27 -3 -30
-37 -33 -38 -3 -38 -3 -38 33 0 36 0 36 38 33 34 -3 37 -6 37 -33z"/>
<path d="M1400 420 c-1 -5 -1 -49 -1 -97 -1 -81 1 -88 19 -91 16 -3 21 3 24
25 4 35 34 34 61 -3 11 -14 29 -24 44 -24 l24 0 -19 28 c-20 27 -20 28 -1 51
32 39 23 83 -22 106 -32 17 -129 20 -129 5z m119 -48 c15 -28 -5 -52 -44 -52
-33 0 -35 2 -35 35 0 33 2 35 35 35 23 0 38 -6 44 -18z"/>
<path d="M1648 414 c-56 -30 -66 -104 -20 -155 23 -26 35 -31 74 -31 58 -1 93
20 108 67 31 93 -72 168 -162 119z m104 -41 c38 -34 8 -113 -44 -113 -29 0
-68 38 -68 67 0 52 72 82 112 46z"/>
<path d="M1857 423 c-4 -3 -7 -48 -7 -100 0 -92 0 -93 24 -93 19 0 25 6 28 28
2 21 8 26 25 24 12 -2 37 4 57 12 58 24 61 92 6 121 -29 15 -121 21 -133 8z
m118 -68 c0 -27 -3 -30 -37 -33 -38 -3 -38 -3 -38 33 0 36 0 36 38 33 34 -3
37 -6 37 -33z"/>
<path d="M2064 417 c-3 -8 -4 -52 -2 -98 l3 -8 -4 -52 -2 -98 l3 -84 78 -3 c64 -2 77 0 77 13 0 12
-12 15 -55 15 -52 0 -55 1 -55 25 0 23 4 25 45 25 38 0 45 3 45 20 0 17 -7 20
-45 20 -38 0 -45 3 -45 20 0 17 7 20 48 20 53 0 63 5 55 26 -7 19 -141 20
-149 1z"/>
<path d="M2260 331 c0 -94 1 -101 20 -101 15 0 20 7 20 25 0 20 5 25 24 25 14
0 33 -11 44 -25 11 -14 29 -25 41 -25 25 0 27 12 6 30 -8 7 -15 18 -15 25 0 7
7 18 15 25 8 7 15 27 15 45 0 48 -29 68 -106 73 l-64 4 0 -101z m121 43 c20
-24 -1 -49 -42 -49 -35 0 -47 18 -35 51 7 19 60 18 77 -2z"/>
<path d="M2450 410 c0 -16 7 -20 30 -20 l30 0 0 -80 c0 -79 0 -80 26 -80 25 0
25 1 24 68 -1 37 -1 73 -1 80 1 7 14 12 31 12 23 0 30 4 30 20 0 18 -7 20 -85
20 -78 0 -85 -2 -85 -20z"/>
<path d="M2650 331 l0 -101 25 0 26 0 -3 98 c-3 92 -4 97 -25 100 -23 3 -23 1
-23 -97z"/>
</g>
</svg>


